<?xml version="1.0" encoding="UTF-8" standalone="no"?>
<!-- Created with Inkscape (http://www.inkscape.org/) -->

<svg
   width="48.8867mm"
   height="38.681862mm"
   viewBox="0 0 48.8867 38.681862"
   version="1.1"
   id="svg1"
   inkscape:version="1.3.2 (091e20e, 2023-11-25)"
   sodipodi:docname="logo_swan.svg"
   xmlns:inkscape="http://www.inkscape.org/namespaces/inkscape"
   xmlns:sodipodi="http://sodipodi.sourceforge.net/DTD/sodipodi-0.dtd"
   xmlns="http://www.w3.org/2000/svg"
   xmlns:svg="http://www.w3.org/2000/svg">
  <sodipodi:namedview
     id="namedview1"
     pagecolor="#ffffff"
     bordercolor="#000000"
     borderopacity="0.25"
     inkscape:showpageshadow="2"
     inkscape:pageopacity="0.0"
     inkscape:pagecheckerboard="0"
     inkscape:deskcolor="#d1d1d1"
     inkscape:document-units="mm"
     inkscape:zoom="5.413835"
     inkscape:cx="123.01816"
     inkscape:cy="146.56893"
     inkscape:window-width="1368"
     inkscape:window-height="724"
     inkscape:window-x="0"
     inkscape:window-y="0"
     inkscape:window-maximized="0"
     inkscape:current-layer="layer1" />
  <defs
     id="defs1" />
  <g
     inkscape:label="Layer 1"
     inkscape:groupmode="layer"
     id="layer1"
     transform="translate(-89.95833,-131.7625)">
    <path
       style="fill:#f11525;stroke-width:2;stroke-dasharray:none"
       d="m 114.21379,139.39824 -5.39288,18.30016 19.46221,1.87844 z"
       id="path7"
       sodipodi:nodetypes="cccc" />
    <path
       style="fill:#aa4400;stroke-width:2;stroke-dasharray:none"
       d="m 122.82336,151.93219 4.11458,-0.33914 1.34518,7.98379 z"
       id="path8"
       sodipodi:nodetypes="cccc" />
    <path
       style="fill:#ff9955;stroke-width:2;stroke-dasharray:none"
       d="m 128.28312,159.57684 5.02076,-8.34676 -6.36594,-13.8893 0.14958,-3.11064 -2.27155,4.46098 z"
       id="path9"
       sodipodi:nodetypes="cccccc" />
    <path
       style="fill:#d45500;stroke-width:2;stroke-dasharray:none"
       d="m 128.15968,140.04147 1.2574,-3.8798 1.76482,-0.55706 -0.3998,-3.79767 -3.65893,2.25825 -0.18523,3.40419 z"
       id="path10"
       sodipodi:nodetypes="ccccccc" />
    <path
       style="fill:#ff6600;stroke-width:2;stroke-dasharray:none"
       d="m 131.1452,135.55894 0.4456,0.0713 1.60413,1.55066 1.60413,-1.76455 0.0713,-0.64165 -0.94466,-1.60413 -3.17261,-1.40807 z"
       id="path11" />
    <path
       style="fill:#d45500;stroke-width:2;stroke-dasharray:none"
       d="m 133.33751,136.98484 5.50752,1.67542 -4.18856,-3.15479 z"
       id="path12" />
    <path
       style="fill:#aa4400;stroke-width:2;stroke-dasharray:none"
       d="m 104.34881,168.65378 24.0315,-9.07597 -19.61479,-1.90325 z"
       id="path13"
       sodipodi:nodetypes="cccc" />
    <path
       style="fill:#803300;stroke-width:2;stroke-dasharray:none"
       d="m 97.44631,164.88542 6.92225,3.78092 2.47573,-6.24767 z"
       id="path14"
       sodipodi:nodetypes="cccc" />
    <path
       style="fill:#d45500;stroke-width:2;stroke-dasharray:none"
       d="m 97.42891,164.86051 -0.46858,5.58385 3.30606,-4.03495 z"
       id="path16" />
    <path
       style="fill:#ff6600;stroke-width:2;stroke-dasharray:none"
       d="m 93.89448,132.3696 14.96878,25.4027 5.36538,-18.30883 z"
       id="path17"
       sodipodi:nodetypes="cccc" />
    <path
       style="fill:#d45500;stroke-width:2;stroke-dasharray:none"
       d="m 98.654622,140.36016 -8.696292,-1.45932 18.53131,19.76826 0.45597,-0.91195 z"
       id="path18"
       sodipodi:nodetypes="ccccc" />
  </g>
</svg>
