<?xml version="1.0" encoding="UTF-8" standalone="no"?>
<!-- Created with Inkscape (http://www.inkscape.org/) -->

<svg
   width="290mm"
   height="290mm"
   viewBox="0 0 290 290"
   version="1.1"
   id="svg1"
   inkscape:version="1.3.2 (091e20e, 2023-11-25)"
   sodipodi:docname="logo1.svg"
   xmlns:inkscape="http://www.inkscape.org/namespaces/inkscape"
   xmlns:sodipodi="http://sodipodi.sourceforge.net/DTD/sodipodi-0.dtd"
   xmlns="http://www.w3.org/2000/svg"
   xmlns:svg="http://www.w3.org/2000/svg">
  <sodipodi:namedview
     id="namedview1"
     pagecolor="#ffffff"
     bordercolor="#000000"
     borderopacity="0.25"
     inkscape:showpageshadow="2"
     inkscape:pageopacity="0.0"
     inkscape:pagecheckerboard="0"
     inkscape:deskcolor="#d1d1d1"
     inkscape:document-units="mm"
     showgrid="true"
     inkscape:zoom="0.45344109"
     inkscape:cx="546.92882"
     inkscape:cy="548.0315"
     inkscape:window-width="1440"
     inkscape:window-height="710"
     inkscape:window-x="-5"
     inkscape:window-y="1"
     inkscape:window-maximized="0"
     inkscape:current-layer="layer3">
    <inkscape:grid
       id="grid1"
       units="mm"
       originx="0"
       originy="0"
       spacingx="1"
       spacingy="1"
       empcolor="#0099e5"
       empopacity="0.30196078"
       color="#0099e5"
       opacity="0.14901961"
       empspacing="5"
       dotted="false"
       gridanglex="30"
       gridanglez="30"
       visible="true" />
  </sodipodi:namedview>
  <defs
     id="defs1" />
  <g
     inkscape:label="Layer 1"
     inkscape:groupmode="layer"
     id="layer1"
     style="display:none"
     sodipodi:insensitive="true">
    <rect
       style="fill:none;stroke:#000000;stroke-width:1.04069;stroke-dasharray:none"
       id="rect1"
       width="268.95932"
       height="268.95926"
       x="10.520348"
       y="10.520348" />
    <path
       style="fill:none;stroke:#000000;stroke-width:1;stroke-dasharray:none"
       d="M 10.000003,100.5 H 280.00002"
       id="path1" />
    <path
       style="fill:none;stroke:#000000;stroke-width:1;stroke-dasharray:none"
       d="M 10,190.5 H 280.00002"
       id="path1-3" />
    <path
       style="fill:none;stroke:#000000;stroke-width:1;stroke-dasharray:none"
       d="M 100.5,10.000003 V 279.99994"
       id="path2" />
    <path
       style="fill:none;stroke:#000000;stroke-width:1;stroke-dasharray:none"
       d="M 190.5,10 V 279.99994"
       id="path2-6" />
  </g>
  <g
     inkscape:groupmode="layer"
     id="layer2"
     inkscape:label="Layer 2">
    <path
       style="fill:#17a700;stroke:none;stroke-width:0.970174;stroke-dasharray:none;fill-opacity:1"
       d="m 99.977787,32.874428 c 0,0 9.701683,-22.9238092 24.254233,-22.9238091 43.65772,3e-7 -9.70168,53.3593751 14.55253,58.2102281 4.75668,0.951331 28.27667,-24.254263 23.42574,-58.2102278 l 25.08286,-3e-7 c 0,0 -14.55254,63.0610821 -14.55254,67.9119351 0,4.850846 1.40877,11.153643 15.03762,5.101803 -5.74476,14.786687 -20.29765,14.786687 -34.4411,14.301598 0,-4.850845 2.39281,-14.552555 2.39281,-14.552555 0,0 -19.90874,20.37352 -45.06033,15.037644 -25.151565,-5.335935 8.25146,-71.185753 3.86073,-73.247864 -4.85087,-2.278226 -10.67185,8.491574 -14.552553,8.371248 z"
       id="path5"
       sodipodi:nodetypes="cssccscccssc" />
    <path
       style="fill:#17a700;stroke:none;stroke-width:0.970174;stroke-dasharray:none;fill-opacity:1"
       d="m 274.1414,74.849018 c 0,0 -10.00205,22.794339 -24.55329,22.603136 -43.65395,-0.573657 10.40195,-53.227291 -13.78645,-58.396423 -4.74375,-1.013752 -28.59287,23.880625 -24.18861,57.897398 L 186.53244,96.62355 c 0,0 15.37989,-62.864421 15.44366,-67.714858 0.0641,-4.850433 -1.26214,-11.171198 -14.96932,-5.298957 C 192.94526,8.8998094 207.49689,9.0910302 221.63271,9.7619178 221.56866,14.612351 219.049,24.28178 219.049,24.28178 c 0,0 20.17469,-20.1102334 45.25399,-14.4442682 25.07934,5.6659672 -9.18607,71.0711862 -4.82286,73.1908142 4.82056,2.341762 10.78253,-8.350616 14.66127,-8.179308 z"
       id="path5-7"
       sodipodi:nodetypes="cssccscccssc" />
    <path
       id="path6"
       style="fill:#007d70;stroke:none;stroke-width:0.943989;stroke-dasharray:none;fill-opacity:1"
       d="M 148.40024 99.972192 A 45.028008 44.528008 0 0 0 103.37198 144.50022 A 45.028008 44.528008 0 0 0 148.40024 189.02826 A 45.028008 44.528008 0 0 0 193.42799 144.50022 A 45.028008 44.528008 0 0 0 148.40024 99.972192 z M 148.40024 128.01648 A 14.835165 16.483517 0 0 1 163.235 144.50022 A 14.835165 16.483517 0 0 1 148.40024 160.98346 A 14.835165 16.483517 0 0 1 133.56497 144.50022 A 14.835165 16.483517 0 0 1 148.40024 128.01648 z " />
    <path
       style="fill:#007d70;stroke:none;stroke-width:1;stroke-dasharray:none;fill-opacity:1"
       d="M 190,120 C 215,99.999997 215,99.999997 215,99.999997 L 234.58081,130.09784 254.21032,100.19192 279.99999,120 254.51779,144.99997 278.55471,169.59624 254.99999,190 234.4253,163.91834 215,190 190.5,169.59624 220.20356,144.99997 Z"
       id="path15" />
    <path
       style="fill:none;stroke:#ca5600;stroke-width:1;stroke-dasharray:none;stroke-opacity:1"
       d="M 99.999997,235 H 190 c 0,0 1.44743,-45.5 -45,-45 -22.97511,0.24732 -46.058868,21.69412 -45.000003,45 1.000013,22.01043 22.170823,45 45.000013,44.47961 C 189.99132,278.45404 190,250 190,250"
       id="path19"
       sodipodi:nodetypes="ccsssc" />
    <path
       style="fill:none;stroke:#ca5600;stroke-width:1;stroke-dasharray:none;stroke-opacity:1"
       d="m 280.76088,151.18416 v 35 L 280,280 m 0,-55 c 0,0 -11.6629,-34.31435 -40.28031,-33.28994 -22.96173,0.82196 -46.38026,19.72618 -45.32139,43.03206 1.00001,22.01043 22.49058,46.00432 45.3214,46.44755 C 267.92982,281.73734 280,260 280,260"
       id="path19-5"
       sodipodi:nodetypes="ccccsssc" />
    <path
       id="path6-5"
       style="fill:#007d70;stroke:none;stroke-width:0.943989;stroke-dasharray:none;fill-opacity:1"
       d="M 11.793079 41.793315 L 11.793079 137.46965 A 45.028008 44.528008 0 0 0 11.072192 144.99993 A 45.028008 44.528008 0 0 0 11.793079 152.53022 L 11.793079 189.99977 L 40.000142 189.99977 L 40.000142 186.4651 A 45.028008 44.528008 0 0 0 56.099935 189.52797 A 45.028008 44.528008 0 0 0 101.12819 144.99993 A 45.028008 44.528008 0 0 0 56.099935 100.4719 A 45.028008 44.528008 0 0 0 40.000142 103.53477 L 40.000142 41.793315 L 11.793079 41.793315 z M 55.499972 128.5167 A 14.835165 16.483517 0 0 1 70.335242 144.99993 A 14.835165 16.483517 0 0 1 55.499972 161.48368 A 14.835165 16.483517 0 0 1 40.664701 144.99993 A 14.835165 16.483517 0 0 1 55.499972 128.5167 z " />
  </g>
  <g
     inkscape:groupmode="layer"
     id="layer3"
     inkscape:label="Layer 3">
    <rect
       style="fill:#c5000e;fill-opacity:1;stroke:none;stroke-width:0.1"
       id="rect1-5"
       width="75"
       height="60"
       x="5.0000105"
       y="215" />
    <path
       style="fill:#c5000e;fill-opacity:1;stroke:none;stroke-width:0.1"
       d="m 80,275 h 20.00001 l 5,-15 H 85 Z"
       id="path1-8" />
    <path
       style="fill:#c5000e;fill-opacity:1;stroke:none;stroke-width:0.1"
       d="m 85,260 5,-5 v -50 l -5,5 z"
       id="path2-3" />
    <path
       style="fill:#a1000c;fill-opacity:1;stroke:none;stroke-width:0.1"
       d="m 5.0000071,215 4.9999999,-5 H 85 l -5,5 z"
       id="path4" />
    <path
       style="fill:#780009;fill-opacity:1;stroke:none;stroke-width:0.1"
       d="m 80,215 5,-5 v 50 l -5,15 z"
       id="path5-0"
       sodipodi:nodetypes="ccccc" />
    <path
       style="fill:#f11525;fill-opacity:1;stroke:none;stroke-width:0.1"
       d="m 80,275 3,4 v -65 l -3,1 z"
       id="path3"
       sodipodi:nodetypes="ccccc" />
    <path
       style="fill:#f11525;fill-opacity:1;stroke:none;stroke-width:0.1"
       d="m 80,215 -15,-6 7,-5 13,6 z"
       id="path6-6" />
  </g>
</svg>
